<svg xmlns="http://www.w3.org/2000/svg" width="1200" height="900" viewBox="0 0 1200 900" fill="none">
  <defs>
    <linearGradient id="g1" x1="0" y1="0" x2="1" y2="1">
      <stop offset="0%" stop-color="#A78BFA" stop-opacity="0.18"/>
      <stop offset="100%" stop-color="#60A5FA" stop-opacity="0.18"/>
    </linearGradient>
    <radialGradient id="glow" cx="0" cy="0" r="1" gradientUnits="userSpaceOnUse" gradientTransform="translate(600 300) rotate(90) scale(420 800)">
      <stop offset="0%" stop-color="#ffffff" stop-opacity="0.55"/>
      <stop offset="100%" stop-color="#ffffff" stop-opacity="0"/>
    </radialGradient>
    <pattern id="grid" width="40" height="40" patternUnits="userSpaceOnUse">
      <path d="M40 0H0V40" stroke="#9CA3AF" stroke-opacity="0.15" stroke-width="1"/>
    </pattern>
  </defs>
  <rect width="1200" height="900" fill="url(#grid)"/>
  <rect width="1200" height="900" fill="url(#g1)"/>
  <circle cx="900" cy="200" r="180" fill="url(#glow)"/>
  <g opacity="0.65">
    <path d="M-50 640C190 520 360 520 600 640C840 760 1010 760 1250 640" stroke="#6366F1" stroke-opacity="0.25" stroke-width="2"/>
    <path d="M-50 700C190 580 360 580 600 700C840 820 1010 820 1250 700" stroke="#22D3EE" stroke-opacity="0.18" stroke-width="2"/>
    <path d="M-50 760C190 640 360 640 600 760C840 880 1010 880 1250 760" stroke="#A78BFA" stroke-opacity="0.2" stroke-width="2"/>
  </g>
  <rect x="60" y="60" width="1080" height="780" rx="20" stroke="#9CA3AF" stroke-opacity="0.18" stroke-width="2"/>
</svg>

